<?xml version="1.0" encoding="UTF-8" standalone="no"?>
<!-- Created with Inkscape (http://www.inkscape.org/) -->

<svg
   version="1.1"
   id="svg4089"
   width="1200"
   height="1200"
   viewBox="0 0 1200 1200"
   sodipodi:docname="external_link.svg"
   inkscape:version="1.2.1 (9c6d41e410, 2022-07-14)"
   xmlns:inkscape="http://www.inkscape.org/namespaces/inkscape"
   xmlns:sodipodi="http://sodipodi.sourceforge.net/DTD/sodipodi-0.dtd"
   xmlns="http://www.w3.org/2000/svg"
   xmlns:svg="http://www.w3.org/2000/svg">
  <defs
     id="defs4093" />
  <sodipodi:namedview
     id="namedview4091"
     pagecolor="#ffffff"
     bordercolor="#000000"
     borderopacity="0.25"
     inkscape:showpageshadow="2"
     inkscape:pageopacity="0.0"
     inkscape:pagecheckerboard="0"
     inkscape:deskcolor="#d1d1d1"
     showgrid="false"
     inkscape:zoom="0.97833333"
     inkscape:cx="599.48893"
     inkscape:cy="600"
     inkscape:window-width="2560"
     inkscape:window-height="1377"
     inkscape:window-x="1912"
     inkscape:window-y="-8"
     inkscape:window-maximized="1"
     inkscape:current-layer="g4095" />
  <g
     inkscape:groupmode="layer"
     inkscape:label="Image"
     id="g4095">
    <path
       style="fill:#000000"
       d="m 191.74725,1090.9153 c -44.58298,-3.0169 -83.60333,-21.0782 -116.784617,-54.056 C 44.304771,1006.3894 26.884066,971.71002 21.522291,930.47558 20.137025,919.82226 20.001578,886.53538 20.295565,629 c 0.359573,-314.99078 -0.08278,-290.40702 5.62687,-312.71594 7.765802,-30.34278 24.655314,-59.04196 49.020848,-83.29772 24.78126,-24.66962 52.274967,-40.68357 83.388727,-48.5705 24.23731,-6.14384 5.683,-5.71864 267.04117,-6.11964 266.87945,-0.40947 246.08949,-0.95401 252.93669,6.62503 1.95637,2.16547 4.03447,5.65656 4.61801,7.75799 1.37556,4.95371 1.39858,49.60514 0.0281,54.53973 -1.24733,4.49122 -5.07649,9.24095 -9.32511,11.56697 -2.92429,1.60098 -18.9341,1.74962 -242.63088,2.25264 l -239.5,0.53855 -8.69945,2.15684 c -23.62506,5.85731 -44.98146,20.23928 -60.53521,40.76605 -6.08489,8.03041 -13.75668,24.05368 -16.51827,34.5 l -2.24707,8.5 V 635 922.5 l 2.29374,8.5 c 9.61578,35.63348 39.3947,65.24118 74.9584,74.5274 3.16132,0.8254 9.57286,1.9408 14.24786,2.4785 12.26655,1.4109 549.98267,1.3393 562.66562,-0.075 42.27993,-4.7145 77.73809,-35.18257 89.0981,-76.5592 L 849.47404,921.5 849.98702,806 c 0.47169,-106.20443 0.64971,-115.74962 2.2119,-118.60156 2.42982,-4.43589 8.21481,-9.19921 12.0297,-9.90517 1.79926,-0.33295 15.26806,-0.46765 29.93066,-0.29932 l 26.65928,0.30605 3.84072,3.10602 c 2.1124,1.70832 4.74072,4.63332 5.84072,6.5 1.9694,3.34205 2,5.19197 2,120.89398 0,116.71834 -0.0146,117.57983 -2.1978,129.5 -5.38845,29.42093 -14.8183,51.73879 -31.9987,75.7321 -6.9356,9.686 -24.99529,28.7533 -34.89766,36.8448 -30.38327,24.8271 -64.59086,38.1838 -104.83005,40.9321 -17.03546,1.1635 -549.55089,1.0755 -566.82854,-0.094 z M 550.48221,811.06527 C 548.02293,809.81384 530.92386,793.4036 506.40152,768.76038 464.73175,726.8852 464,726.00919 464,718 c 0,-8.57938 -10.28581,2.10429 215.89221,-224.2432 L 893.47538,280.01361 833.40633,219.7568 c -55.77958,-55.95393 -60.26541,-60.70713 -62.81906,-66.56318 -10.5899,-24.28485 4.53818,-52.29226 30.84639,-57.107558 8.3307,-1.524802 337.80194,-1.524802 346.13264,0 15.099,2.763626 27.9363,14.088628 32.4181,28.598968 1.9875,6.43474 2.0156,8.91008 2.0156,177.71021 0,188.61458 0.3578,177.69705 -6.1557,187.84737 -4.1021,6.39256 -12.1291,13.48926 -18.8443,16.66024 -4.8823,2.30546 -6.7354,2.59715 -16.5,2.59715 -18.2226,0 -13.371,3.8355 -83.0099,-65.62543 L 997.48022,384.01801 785.99011,595.53079 C 669.67055,711.86282 572.76487,808.25297 570.64416,809.73113 c -5.26972,3.67305 -14.38079,4.27594 -20.16195,1.33414 z"
       id="path4462" />
  </g>
</svg>
