<?xml version="1.0" encoding="UTF-8" standalone="no"?>
<!-- Created with Inkscape (http://www.inkscape.org/) -->

<svg
   version="1.1"
   id="svg2"
   width="479"
   height="512"
   viewBox="0 0 479 512"
   sodipodi:docname="github_icon.svg"
   inkscape:version="1.2.1 (9c6d41e410, 2022-07-14)"
   xmlns:inkscape="http://www.inkscape.org/namespaces/inkscape"
   xmlns:sodipodi="http://sodipodi.sourceforge.net/DTD/sodipodi-0.dtd"
   xmlns="http://www.w3.org/2000/svg"
   xmlns:svg="http://www.w3.org/2000/svg">
  <defs
     id="defs6" />
  <sodipodi:namedview
     id="namedview4"
     pagecolor="#ffffff"
     bordercolor="#000000"
     borderopacity="0.25"
     inkscape:showpageshadow="2"
     inkscape:pageopacity="0.0"
     inkscape:pagecheckerboard="0"
     inkscape:deskcolor="#d1d1d1"
     showgrid="false"
     inkscape:zoom="1.9570312"
     inkscape:cx="219.46508"
     inkscape:cy="256.00001"
     inkscape:window-width="1920"
     inkscape:window-height="1017"
     inkscape:window-x="-8"
     inkscape:window-y="361"
     inkscape:window-maximized="1"
     inkscape:current-layer="g8" />
  <g
     inkscape:groupmode="layer"
     inkscape:label="Image"
     id="g8">
    <path
       style="fill:#000000;stroke-width:1.00154"
       d="m 168.48841,509.48387 c -5.87647,-2.93108 -9.74655,-7.91966 -11.24572,-14.49582 -0.56536,-2.47995 -1.03893,-13.46251 -1.05239,-24.40571 -0.0228,-18.54684 -0.14333,-19.84845 -1.77635,-19.18548 -0.96353,0.39118 -7.62578,0.95063 -14.80501,1.24324 -25.06335,1.02153 -46.367203,-4.78511 -64.529831,-17.58844 C 65.250347,428.12309 57.102648,419.92448 43.031722,402.80404 27.059654,383.37043 25.761179,382.15577 15.717547,377.25304 5.3030969,372.16929 1.846669,367.75145 1.1915899,358.68667 c -0.55923906,-7.73858 1.6365831,-13.70499 6.7434322,-18.323 8.3401969,-7.54186 18.0661579,-7.63284 32.5251749,-0.30426 11.485569,5.82148 20.394249,14.08666 36.442227,33.80986 19.363974,23.79861 28.728286,30.60714 46.411246,33.74436 7.69158,1.3646 10.52982,1.41456 20.06575,0.35323 6.10884,-0.67989 11.48485,-1.46994 11.94669,-1.75564 0.46184,-0.2857 0.83972,-3.39106 0.83972,-6.90081 0,-9.08134 1.79837,-20.83776 4.48094,-29.29306 l 2.30808,-7.27496 -4.14532,-1.0159 C 147.20174,358.88174 127.79288,351.83512 117.34869,346.67365 71.325039,323.92893 44.898224,284.81318 36.403876,226.86287 33.924716,209.9495 33.886347,177.2915 36.330406,164.32802 39.949944,145.12968 47.838152,125.87427 58.823983,109.42033 l 5.551479,-8.31468 -1.637893,-9.220321 C 58.193391,66.304433 60.339168,41.862332 69.132805,19.038496 72.914496,9.223142 75.956832,5.4428773 82.54623,2.3716047 86.840474,0.37008756 89.158928,0.02134985 98.103733,0.03147382 119.50276,0.05569381 144.72881,8.7937047 174.83823,26.611413 l 7.85421,4.647852 13.01479,-2.656923 c 37.70627,-7.697595 82.47504,-7.697497 121.32065,2.66e-4 l 13.20414,2.616572 13.14536,-7.528648 C 360.09242,14.11745 377.78609,6.5940842 392.27501,2.8992096 401.50455,0.54555155 405.76855,0 414.93506,0 c 10.4161,0 11.70619,0.21699315 16.64568,2.7998103 6.41734,3.3555745 9.56408,7.9665827 13.81681,20.2461917 5.32164,15.366022 6.58464,23.72646 6.58464,43.587004 0,13.48306 -0.44664,20.106522 -1.76932,26.238151 l -1.76932,8.202143 5.55907,8.17159 c 19.09216,28.06467 26.95885,59.14441 24.44731,96.58639 -2.7964,41.68856 -11.69564,70.49762 -29.89308,96.77135 -6.76893,9.77309 -24.29829,26.87081 -34.29696,33.45244 -15.80301,10.40234 -32.55564,17.87806 -51.87352,23.14813 -5.78118,1.57715 -10.85783,3.15853 -11.28144,3.5142 -0.4236,0.35566 -0.0538,2.64442 0.82187,5.08614 4.23516,11.80979 4.55979,17.14003 4.47622,73.49752 -0.0896,60.45031 0.0849,58.88359 -7.27827,65.35442 -4.74422,4.16929 -9.69762,5.68464 -16.88177,5.16451 -7.89131,-0.57133 -13.40404,-4.34905 -17.1572,-11.75731 l -2.75294,-5.43398 v -51.71382 c 0,-56.50791 -0.0862,-57.51065 -5.92491,-68.92526 -1.61895,-3.16503 -4.84138,-8.00908 -7.16099,-10.76458 -9.76707,-11.60254 -10.51765,-22.47146 -2.18904,-31.6988 5.16696,-5.72452 7.98431,-6.84902 22.38273,-8.93373 37.91304,-5.48934 63.71491,-15.92822 81.34831,-32.91178 16.30913,-15.70808 26.00043,-35.76666 31.27514,-64.73171 1.36891,-7.51712 1.83396,-15.1509 1.86177,-30.561 0.0336,-18.63543 -0.18363,-21.33112 -2.34197,-29.058 -4.39675,-15.74051 -12.18327,-30.14065 -22.96819,-42.47662 -4.91733,-5.62453 -7.18757,-10.83509 -7.18757,-16.4966 0,-1.72134 1.36944,-7.98162 3.04318,-13.911746 3.73094,-13.21879 4.77888,-26.6548 2.98112,-38.222029 -0.69817,-4.492227 -1.55617,-8.345082 -1.90666,-8.5619 -0.35049,-0.216816 -4.77192,0.931048 -9.8254,2.55081 -10.67576,3.421839 -27.97932,12.062937 -40.84202,20.395789 -4.9553,3.210197 -10.45924,6.446372 -12.23096,7.191502 -4.694,1.974137 -10.97267,1.67148 -22.65828,-1.092221 -42.15618,-9.970128 -86.31265,-9.98287 -127.2842,-0.03672 -16.60634,4.03131 -19.25938,3.585292 -34.0364,-5.722027 -17.99737,-11.335672 -37.02574,-20.401658 -48.72283,-23.21379 -2.32395,-0.558706 -2.75238,-0.282518 -3.27601,2.111888 -2.96626,13.563765 -2.18074,30.577928 2.08109,45.076174 4.41892,15.03261 3.32892,21.37919 -5.37998,31.32548 -19.257481,21.99362 -27.029924,48.11331 -24.376352,81.91795 3.735891,47.59264 19.228851,77.77551 49.245312,95.93809 15.96987,9.66317 41.41275,17.68502 68.46946,21.58765 9.44351,1.36213 13.97563,3.08026 17.86068,6.77099 4.59749,4.36754 6.66555,9.4059 6.66555,16.23918 0,6.85774 -1.5179,10.55214 -6.72349,16.36431 -5.41427,6.04514 -9.20876,12.63017 -11.35053,19.69786 -1.84291,6.08149 -1.98939,10.03151 -2.21081,59.619 -0.23638,52.94121 -0.24411,53.1191 -2.49039,57.32627 -2.82759,5.29594 -5.66161,8.03689 -10.76065,10.40727 -5.77926,2.68659 -13.03549,2.44761 -19.21114,-0.63271 z"
       id="path3232" />
  </g>
</svg>
