<?xml version="1.0" encoding="UTF-8" standalone="no"?>
<!-- Created with Inkscape (http://www.inkscape.org/) -->

<svg
   width="50.797829mm"
   height="52.196743mm"
   viewBox="0 0 50.797829 52.196743"
   version="1.1"
   id="svg186"
   inkscape:version="1.2.1 (9c6d41e410, 2022-07-14)"
   sodipodi:docname="logo.svg"
   xmlns:inkscape="http://www.inkscape.org/namespaces/inkscape"
   xmlns:sodipodi="http://sodipodi.sourceforge.net/DTD/sodipodi-0.dtd"
   xmlns="http://www.w3.org/2000/svg"
   xmlns:svg="http://www.w3.org/2000/svg">
  <sodipodi:namedview
     id="namedview188"
     pagecolor="#ffffff"
     bordercolor="#000000"
     borderopacity="0.25"
     inkscape:showpageshadow="2"
     inkscape:pageopacity="0.0"
     inkscape:pagecheckerboard="0"
     inkscape:deskcolor="#d1d1d1"
     inkscape:document-units="mm"
     showgrid="false"
     inkscape:zoom="5.9509621"
     inkscape:cx="69.148483"
     inkscape:cy="98.639512"
     inkscape:window-width="2560"
     inkscape:window-height="1377"
     inkscape:window-x="1912"
     inkscape:window-y="-8"
     inkscape:window-maximized="1"
     inkscape:current-layer="layer1" />
  <defs
     id="defs183" />
  <g
     inkscape:label="Layer 1"
     inkscape:groupmode="layer"
     id="layer1"
     transform="translate(-119.86359,-61.441721)">
    <path
       style="fill:#000000;stroke-width:0.632117"
       d="m 147.20195,113.25704 c -6.25071,-1.56988 -12.11812,-6.5016 -14.82557,-12.46148 -1.93093,-4.250702 -2.3629,-11.686032 -0.88268,-15.194632 0.87058,-2.064005 0.87959,-2.067324 1.82798,-0.71354 0.64926,0.927033 0.98088,3.098094 1.04066,6.814874 0.0996,6.241856 1.21074,9.012788 5.22454,13.039578 7.88084,7.90634 21.10585,6.65174 27.15196,-2.57577 1.16188,-1.77318 1.46219,-1.83937 3.05689,-0.67322 1.14029,0.83381 1.13555,0.92348 -0.15182,3.00255 -1.62468,2.6225 -6.46937,6.31919 -10.15535,7.74881 -3.41855,1.32579 -9.15616,1.7988 -12.28604,1.01291 z m -27.33415,-30.797119 0.005,-20.701902 1.91551,-0.1874 c 1.78907,-0.175539 2.31522,0.355585 7.97822,8.049315 l 6.06274,8.237046 1.71909,-1.593134 c 2.8073,-2.601724 4.63594,-3.586664 8.75907,-4.717846 l 3.90713,-1.071974 0.1115,-3.093613 c 0.0617,-1.701542 0.13284,-3.733643 0.15893,-4.515882 0.0356,-1.08336 0.42248,-1.42234 1.62635,-1.42234 1.76393,0 1.70841,-0.151817 1.8173,5.004284 0.0427,2.057126 0.2301,3.890891 0.41441,4.075278 0.18503,0.185028 1.32224,0.508589 2.52848,0.720659 3.63654,0.639057 7.44482,2.907708 10.75387,6.406556 3.41651,3.612447 3.85118,4.972328 1.79761,5.624076 -1.06676,0.338507 -1.88823,-0.206377 -4.0782,-2.710937 -6.42214,-7.341489 -18.3292,-8.221888 -25.0857,-1.854783 -0.95597,0.900944 -1.73831,1.911477 -1.73831,2.245712 0,0.334236 1.67901,2.872008 3.73108,5.639663 2.05214,2.76766 4.50466,6.201059 5.45015,7.629804 0.94554,1.428742 1.96889,2.443333 2.27394,2.254725 0.3053,-0.189771 0.55485,-4.699699 0.55485,-10.02453 v -9.681521 h 1.54308 c 0.84876,0 1.64722,0.320004 1.77437,0.711169 0.1281,0.391169 0.21587,6.257988 0.19451,13.037468 l -0.0356,12.326326 h -2.20017 c -2.1494,0 -2.48416,-0.38903 -14.53873,-16.896126 -6.78591,-9.292864 -12.69384,-17.243333 -13.12842,-17.667734 -0.6317,-0.616759 -0.79016,2.803428 -0.79016,17.054154 v 17.825746 h -1.74306 -1.74305 z"
       id="path172" />
    <path
       style="fill:#64ffda;stroke-width:0.16804;fill-opacity:1"
       d="M 0.13215134,79.448826 C 0.15862354,36.500017 0.19907215,1.341295 0.22203709,1.3183301 0.3406467,1.1997205 7.3647175,0.55346294 8.7380829,0.53480174 11.542902,0.49669004 13.266764,1.3137573 16.087376,4.0181814 c 4.079037,3.9110134 7.98512,8.9210886 25.362285,32.5305306 4.251563,5.776377 10.205934,13.867506 13.231936,17.980286 3.026001,4.11278 5.559514,7.498895 5.630029,7.524697 0.07052,0.02581 1.936418,-1.629894 4.146452,-3.679327 7.987517,-7.407077 11.842368,-10.391271 17.09899,-13.237014 5.700547,-3.08607 10.53757,-4.732669 27.248872,-9.275949 3.14234,-0.854308 5.77574,-1.606835 5.85199,-1.672285 0.0763,-0.06545 0.35662,-6.461459 0.62306,-14.213358 0.26643,-7.751898 0.55725,-14.7482046 0.64626,-15.5473478 0.38264,-3.43532219 1.79349,-4.34439417 6.74235,-4.34439417 3.36646,0 4.33159,0.45074434 4.93621,2.30533547 0.57641,1.768106 0.83707,5.4508473 1.02618,14.4986705 0.188,8.99435 0.72456,15.350097 1.44932,17.167587 0.32549,0.816253 3.18378,1.744706 8.96005,2.910482 4.52496,0.913235 7.28795,1.660767 10.27268,2.779295 11.57688,4.338435 22.32347,12.000187 32.75652,23.353651 6.64454,7.230728 9.51683,11.478107 9.78855,14.474752 0.0751,0.827553 0.0195,1.112788 -0.37261,1.914287 -0.56485,1.15449 -1.49431,1.880269 -3.36566,2.628092 -1.12761,0.450617 -1.57457,0.539012 -2.77266,0.548374 -1.30712,0.01022 -1.5353,-0.04026 -2.68864,-0.594783 -2.44883,-1.177379 -4.95222,-3.462611 -10.28911,-9.392439 -1.62202,-1.80223 -3.46786,-3.776507 -4.10186,-4.387284 -11.08307,-10.676998 -25.84439,-17.350141 -41.8169,-18.904138 -3.19474,-0.310822 -9.69135,-0.349661 -12.68855,-0.07586 -11.34495,1.036399 -21.730729,4.697196 -30.367775,10.704088 -5.211261,3.624327 -11.031807,9.460985 -12.595037,12.629902 -0.56544,1.146239 -0.482112,1.440647 1.217239,4.300666 2.447908,4.119845 6.515669,9.999536 13.497854,19.510293 7.894251,10.753129 14.988689,20.683329 19.088399,26.718369 4.04919,5.96068 7.20744,9.32622 8.75179,9.32622 0.72173,0 0.8392,-0.22557 1.16194,-2.23119 1.07381,-6.6731 1.42532,-18.72953 1.42803,-48.979014 l 0.002,-23.231538 h 3.6217 c 3.97269,0 5.30869,0.188161 6.93427,0.976619 1.21269,0.588192 1.81635,1.30868 1.95033,2.32781 0.37056,2.81843 0.47369,12.135041 0.55032,49.712213 0.0458,22.45855 0.0301,41.84025 -0.0349,43.07044 l -0.11817,2.23671 -5.56957,-0.0536 c -5.22584,-0.0503 -5.62907,-0.0761 -6.53365,-0.41681 -4.7223,-1.7789 -9.93032,-7.77285 -28.372168,-32.65381 C 86.01244,120.06882 77.661264,108.68831 69.817642,97.967352 34.63605,49.879837 17.205453,26.453183 16.038752,25.688732 c -0.389427,-0.255164 -0.442092,-0.254638 -0.731527,0.0073 -0.959958,0.868748 -1.485412,5.998433 -1.886268,18.414484 -0.111995,3.46891 -0.212794,26.314673 -0.262646,59.528194 l -0.0809,53.89885 -6.4966961,10e-6 -6.49669587,1e-5 z"
       id="path180"
       transform="matrix(0.26458333,0,0,0.26458333,119.86359,61.441721)" />
    <path
       style="fill:#64ffda;fill-opacity:1;stroke-width:0.16804"
       d="m 111.83066,197.00971 c -7.71362,-0.54804 -14.854201,-2.65229 -23.609631,-6.95748 -8.778717,-4.31665 -15.759364,-9.28218 -22.912835,-16.29854 -7.394133,-7.25241 -12.512483,-14.19023 -16.736285,-22.68568 -2.546693,-5.12224 -4.032062,-9.37468 -5.37826,-15.39735 -1.810814,-8.10129 -2.55162,-15.67495 -2.395844,-24.49401 0.142213,-8.05122 1.00109,-13.783809 2.788096,-18.609206 0.644167,-1.739425 2.14997,-5.200446 2.58556,-5.942796 0.455445,-0.776187 1.141532,-1.51236 1.409466,-1.51236 0.671183,0 3.028908,2.99901 4.02838,5.124071 1.887115,4.012356 2.728484,10.446031 3.087716,23.610781 0.178128,6.52786 0.358385,9.62486 0.772661,13.27516 1.657269,14.60266 6.559182,24.11285 18.686816,36.25425 5.548224,5.55453 11.094055,9.61435 17.5416,12.84132 9.2967,4.65296 18.28144,6.8959 28.61858,7.14431 11.38926,0.27369 21.52084,-1.92642 31.46791,-6.8334 6.55518,-3.23373 11.80042,-7.01794 17.10121,-12.3378 3.27353,-3.28531 5.3003,-5.76073 8.37471,-10.2286 3.27107,-4.75367 4.48818,-5.77612 6.37172,-5.35272 2.16894,0.48757 7.54854,4.39834 8.02147,5.83133 0.27921,0.84601 0.0717,1.71834 -0.82716,3.47775 -3.36836,6.59291 -7.94441,11.96455 -15.64478,18.36475 -8.82401,7.33412 -19.48528,13.64634 -27.81063,16.46584 -9.61713,3.25699 -24.51957,5.0434 -35.54047,4.26038 z"
       id="path929"
       transform="matrix(0.26458333,0,0,0.26458333,119.86359,61.441721)" />
  </g>
</svg>
